<mxfile host="app.diagrams.net" agent="Mozilla/5.0 (Windows NT 10.0; Win64; x64) AppleWebKit/537.36 (KHTML, like Gecko) Chrome/131.0.0.0 Safari/537.36" version="26.0.5">
  <diagram name="Page-1" id="BsdT6Z5xeSptT1x9EVIX">
    <mxGraphModel dx="1050" dy="562" grid="1" gridSize="10" guides="1" tooltips="1" connect="1" arrows="1" fold="1" page="1" pageScale="1" pageWidth="850" pageHeight="1100" math="0" shadow="0">
      <root>
        <mxCell id="0" />
        <mxCell id="1" parent="0" />
        <mxCell id="ao-IIDjHN7cyF9fpgmbb-3" value="VPC" style="points=[[0,0],[0.25,0],[0.5,0],[0.75,0],[1,0],[1,0.25],[1,0.5],[1,0.75],[1,1],[0.75,1],[0.5,1],[0.25,1],[0,1],[0,0.75],[0,0.5],[0,0.25]];outlineConnect=0;gradientColor=none;html=1;whiteSpace=wrap;fontSize=12;fontStyle=0;container=1;pointerEvents=0;collapsible=0;recursiveResize=0;shape=mxgraph.aws4.group;grIcon=mxgraph.aws4.group_vpc2;strokeColor=#8C4FFF;fillColor=none;verticalAlign=top;align=left;spacingLeft=30;fontColor=#AAB7B8;dashed=0;" parent="1" vertex="1">
          <mxGeometry x="120" y="60" width="560" height="460" as="geometry" />
        </mxCell>
        <mxCell id="ao-IIDjHN7cyF9fpgmbb-6" value="Private subnet" style="points=[[0,0],[0.25,0],[0.5,0],[0.75,0],[1,0],[1,0.25],[1,0.5],[1,0.75],[1,1],[0.75,1],[0.5,1],[0.25,1],[0,1],[0,0.75],[0,0.5],[0,0.25]];outlineConnect=0;gradientColor=none;html=1;whiteSpace=wrap;fontSize=12;fontStyle=0;container=1;pointerEvents=0;collapsible=0;recursiveResize=0;shape=mxgraph.aws4.group;grIcon=mxgraph.aws4.group_security_group;grStroke=0;strokeColor=#00A4A6;fillColor=#E6F6F7;verticalAlign=top;align=left;spacingLeft=30;fontColor=#147EBA;dashed=0;" parent="ao-IIDjHN7cyF9fpgmbb-3" vertex="1">
          <mxGeometry x="20" y="170" width="240" height="260" as="geometry" />
        </mxCell>
        <mxCell id="ao-IIDjHN7cyF9fpgmbb-30" value="" style="outlineConnect=0;dashed=0;verticalLabelPosition=bottom;verticalAlign=top;align=center;html=1;shape=mxgraph.aws3.ec2;fillColor=#F58534;gradientColor=none;" parent="ao-IIDjHN7cyF9fpgmbb-6" vertex="1">
          <mxGeometry x="20" y="60" width="50" height="50" as="geometry" />
        </mxCell>
        <mxCell id="ao-IIDjHN7cyF9fpgmbb-7" value="Public subnet" style="points=[[0,0],[0.25,0],[0.5,0],[0.75,0],[1,0],[1,0.25],[1,0.5],[1,0.75],[1,1],[0.75,1],[0.5,1],[0.25,1],[0,1],[0,0.75],[0,0.5],[0,0.25]];outlineConnect=0;gradientColor=none;html=1;whiteSpace=wrap;fontSize=12;fontStyle=0;container=1;pointerEvents=0;collapsible=0;recursiveResize=0;shape=mxgraph.aws4.group;grIcon=mxgraph.aws4.group_security_group;grStroke=0;strokeColor=#7AA116;fillColor=#F2F6E8;verticalAlign=top;align=left;spacingLeft=30;fontColor=#248814;dashed=0;" parent="ao-IIDjHN7cyF9fpgmbb-3" vertex="1">
          <mxGeometry x="300" y="170" width="250" height="260" as="geometry" />
        </mxCell>
        <mxCell id="ao-IIDjHN7cyF9fpgmbb-8" value="" style="outlineConnect=0;dashed=0;verticalLabelPosition=bottom;verticalAlign=top;align=center;html=1;shape=mxgraph.aws3.ec2;fillColor=#F58534;gradientColor=none;" parent="ao-IIDjHN7cyF9fpgmbb-7" vertex="1">
          <mxGeometry x="40.5" y="40" width="50" height="50" as="geometry" />
        </mxCell>
        <mxCell id="ao-IIDjHN7cyF9fpgmbb-25" value="" style="outlineConnect=0;dashed=0;verticalLabelPosition=bottom;verticalAlign=top;align=center;html=1;shape=mxgraph.aws3.vpc_nat_gateway;fillColor=#F58536;gradientColor=none;" parent="ao-IIDjHN7cyF9fpgmbb-7" vertex="1">
          <mxGeometry x="50" y="150" width="59.5" height="60" as="geometry" />
        </mxCell>
        <mxCell id="ao-IIDjHN7cyF9fpgmbb-10" value="" style="outlineConnect=0;dashed=0;verticalLabelPosition=bottom;verticalAlign=top;align=center;html=1;shape=mxgraph.aws3.route_table;fillColor=#F58536;gradientColor=none;" parent="ao-IIDjHN7cyF9fpgmbb-7" vertex="1">
          <mxGeometry x="140" y="-30" width="80" height="60" as="geometry" />
        </mxCell>
        <mxCell id="ao-IIDjHN7cyF9fpgmbb-23" style="edgeStyle=none;shape=link;rounded=0;orthogonalLoop=1;jettySize=auto;html=1;exitX=1;exitY=0.5;exitDx=0;exitDy=0;exitPerimeter=0;entryX=0.5;entryY=0;entryDx=0;entryDy=0;entryPerimeter=0;" parent="ao-IIDjHN7cyF9fpgmbb-3" source="ao-IIDjHN7cyF9fpgmbb-11" target="ao-IIDjHN7cyF9fpgmbb-10" edge="1">
          <mxGeometry relative="1" as="geometry">
            <mxPoint x="320" as="targetPoint" />
            <Array as="points">
              <mxPoint x="480" y="95" />
            </Array>
          </mxGeometry>
        </mxCell>
        <mxCell id="ao-IIDjHN7cyF9fpgmbb-11" value="" style="outlineConnect=0;dashed=0;verticalLabelPosition=bottom;verticalAlign=top;align=center;html=1;shape=mxgraph.aws3.router;fillColor=#F58534;gradientColor=none;" parent="ao-IIDjHN7cyF9fpgmbb-3" vertex="1">
          <mxGeometry x="244" y="60" width="72" height="70" as="geometry" />
        </mxCell>
        <mxCell id="ao-IIDjHN7cyF9fpgmbb-24" value="" style="endArrow=classic;startArrow=classic;html=1;rounded=0;" parent="ao-IIDjHN7cyF9fpgmbb-3" source="ao-IIDjHN7cyF9fpgmbb-6" target="ao-IIDjHN7cyF9fpgmbb-7" edge="1">
          <mxGeometry width="50" height="50" relative="1" as="geometry">
            <mxPoint x="280" y="260" as="sourcePoint" />
            <mxPoint x="330" y="210" as="targetPoint" />
            <Array as="points" />
          </mxGeometry>
        </mxCell>
        <mxCell id="ao-IIDjHN7cyF9fpgmbb-26" value="" style="outlineConnect=0;dashed=0;verticalLabelPosition=bottom;verticalAlign=top;align=center;html=1;shape=mxgraph.aws3.route_table;fillColor=#F58536;gradientColor=none;" parent="ao-IIDjHN7cyF9fpgmbb-3" vertex="1">
          <mxGeometry x="140" y="150" width="80" height="60" as="geometry" />
        </mxCell>
        <mxCell id="ao-IIDjHN7cyF9fpgmbb-29" style="edgeStyle=none;shape=link;rounded=0;orthogonalLoop=1;jettySize=auto;html=1;exitX=0.5;exitY=1;exitDx=0;exitDy=0;exitPerimeter=0;entryX=0;entryY=0.5;entryDx=0;entryDy=0;entryPerimeter=0;" parent="ao-IIDjHN7cyF9fpgmbb-3" source="ao-IIDjHN7cyF9fpgmbb-26" target="ao-IIDjHN7cyF9fpgmbb-25" edge="1">
          <mxGeometry relative="1" as="geometry">
            <Array as="points">
              <mxPoint x="180" y="350" />
            </Array>
          </mxGeometry>
        </mxCell>
        <mxCell id="ao-IIDjHN7cyF9fpgmbb-9" value="" style="outlineConnect=0;dashed=0;verticalLabelPosition=bottom;verticalAlign=top;align=center;html=1;shape=mxgraph.aws3.internet_gateway;fillColor=#F58534;gradientColor=none;" parent="1" vertex="1">
          <mxGeometry x="376" y="40" width="49" height="50" as="geometry" />
        </mxCell>
        <mxCell id="ao-IIDjHN7cyF9fpgmbb-14" value="" style="edgeStyle=none;shape=link;rounded=0;orthogonalLoop=1;jettySize=auto;html=1;" parent="1" source="ao-IIDjHN7cyF9fpgmbb-9" target="ao-IIDjHN7cyF9fpgmbb-11" edge="1">
          <mxGeometry relative="1" as="geometry" />
        </mxCell>
      </root>
    </mxGraphModel>
  </diagram>
</mxfile>
